<?xml version="1.0" encoding="UTF-8" standalone="no"?>
<!-- Created with Inkscape (http://www.inkscape.org/) -->

<svg
   width="300"
   height="200"
   viewBox="0 0 79.374998 52.916667"
   version="1.1"
   id="svg1"
   xmlns="http://www.w3.org/2000/svg"
   xmlns:svg="http://www.w3.org/2000/svg">
  <defs
     id="defs1" />
  <g
     id="layer1">
    <path
       style="fill:none;stroke:#000000;stroke-width:2.38125;stroke-dasharray:none;stroke-opacity:1;paint-order:stroke markers fill"
       d="M 38.478851,9.2994248 24.519,17.593463"
       id="path12" />
    <path
       style="fill:none;stroke:#000000;stroke-width:2.38125;stroke-dasharray:none;stroke-opacity:1;paint-order:stroke markers fill"
       d="M 39.6875,26.458333 24.519,35.041483"
       id="path12-5" />
    <path
       style="fill:none;stroke:#000000;stroke-width:2.38125;stroke-dasharray:none;stroke-opacity:1;paint-order:stroke markers fill"
       d="m 39.6875,26.458333 17.681202,8.58315"
       id="path13-2-6" />
    <path
       style="fill:none;stroke:#000000;stroke-width:2.38125;stroke-dasharray:none;stroke-opacity:1;paint-order:stroke markers fill"
       d="M 39.391735,8.7980724 55.610491,17.593463"
       id="path13-2-6-3" />
  </g>
  <g
     id="layer3">
    <path
       style="fill:none;stroke:#000000;stroke-width:2.38125;stroke-dasharray:none;stroke-opacity:1;paint-order:stroke markers fill"
       d="M 55.610491,17.593463 39.6875,26.458333"
       id="path12-8" />
    <path
       style="fill:none;stroke:#000000;stroke-width:2.38125;stroke-dasharray:none;stroke-opacity:1;paint-order:stroke markers fill"
       d="M 55.610491,35.041483 39.062426,44.03627"
       id="path12-4" />
    <path
       style="fill:none;fill-opacity:1;stroke:#000000;stroke-width:2.38125;stroke-dasharray:none;stroke-opacity:1;paint-order:stroke markers fill"
       d="m 24.519,35.041483 15.037389,9.15944"
       id="path20" />
  </g>
  <g
     id="layer2">
    <path
       style="fill:none;stroke-width:3.70417;paint-order:stroke markers fill"
       id="path1"
       d="m 27.972818,9.950064 1.344133,11.479289 -10.502092,4.825642 -7.834784,-8.496878 5.65993,-10.0770014 z"
       transform="translate(12.933402,-0.16465449)" />
    <path
       style="fill:#000000;fill-opacity:1;stroke-width:3.70417;paint-order:stroke markers fill"
       id="path4"
       d="m 20.148514,1.062001 2.2993,1.3275013 -1e-6,2.6550026 -2.299299,1.3275013 -2.2993,-1.3275014 0,-2.6550026 z"
       transform="matrix(1.6349771,0,0,1.6349771,6.4493767,2.7208567)" />
    <path
       style="fill:#000000;stroke-width:3.70417;paint-order:stroke markers fill"
       id="path4-7"
       d="m 20.148514,1.062001 2.2993,1.3275013 -1e-6,2.6550026 -2.299299,1.3275013 -2.2993,-1.3275014 0,-2.6550026 z"
       transform="matrix(1.6349771,0,0,1.6349771,-8.4233591,11.516247)" />
    <path
       style="fill:#000000;stroke-width:3.70417;paint-order:stroke markers fill"
       id="path4-7-6"
       d="m 20.148514,1.062001 2.2993,1.3275013 -1e-6,2.6550026 -2.299299,1.3275013 -2.2993,-1.3275014 0,-2.6550026 z"
       transform="matrix(1.6349771,0,0,1.6349771,-23.59186,20.013125)" />
    <path
       style="fill:#000000;stroke-width:3.70417;paint-order:stroke markers fill"
       id="path4-7-6-1"
       d="m 20.148514,1.062001 2.2993,1.3275013 -1e-6,2.6550026 -2.299299,1.3275013 -2.2993,-1.3275014 0,-2.6550026 z"
       transform="matrix(1.6349771,0,0,1.6349771,38.591123,20.013125)" />
    <path
       style="fill:#000000;stroke-width:3.70417;paint-order:stroke markers fill"
       id="path4-7-0"
       d="m 20.148514,1.062001 2.2993,1.3275013 -1e-6,2.6550026 -2.299299,1.3275013 -2.2993,-1.3275014 0,-2.6550026 z"
       transform="matrix(1.6349771,0,0,1.6349771,22.668132,11.516247)" />
    <path
       style="fill:#000000;stroke-width:3.70417;paint-order:stroke markers fill"
       id="path4-7-0-9-3"
       d="m 20.148514,1.062001 2.2993,1.3275013 -1e-6,2.6550026 -2.299299,1.3275013 -2.2993,-1.3275014 0,-2.6550026 z"
       transform="matrix(1.6349771,0,0,1.6349771,6.4493767,37.712072)" />
    <path
       style="fill:#000000;stroke-width:3.70417;paint-order:stroke markers fill"
       id="path4-7-0-9-3-8"
       d="m 20.148514,1.062001 2.2993,1.3275013 -1e-6,2.6550026 -2.299299,1.3275013 -2.2993,-1.3275014 0,-2.6550026 z"
       transform="matrix(1.6349771,0,0,1.6349771,22.668132,28.964267)" />
    <path
       style="fill:#000000;stroke-width:3.70417;paint-order:stroke markers fill"
       id="path4-7-0-9-3-8-1"
       d="m 20.148514,1.062001 2.2993,1.3275013 -1e-6,2.6550026 -2.299299,1.3275013 -2.2993,-1.3275014 0,-2.6550026 z"
       transform="matrix(1.6349771,0,0,1.6349771,-8.4233591,28.964267)" />
    <path
       style="fill:none;fill-opacity:1;stroke:#000000;stroke-width:2.38125;stroke-dasharray:none;stroke-opacity:1;paint-order:stroke markers fill"
       d="M 24.518999,17.593462 9.3504987,26.090341 24.519,35.041483"
       id="path18" />
    <path
       style="fill:none;fill-opacity:1;stroke:#000000;stroke-width:2.38125;stroke-dasharray:none;stroke-opacity:1;paint-order:stroke markers fill"
       d="m 55.610489,17.593462 15.922993,8.496878 -14.16478,8.951143"
       id="path19" />
  </g>
  <g
     id="layer4">
    <path
       style="fill:#000000;stroke-width:3.70417;paint-order:stroke markers fill"
       id="path4-7-0-9"
       d="m 20.148514,1.062001 2.2993,1.3275013 -1e-6,2.6550026 -2.299299,1.3275013 -2.2993,-1.3275014 0,-2.6550026 z"
       transform="matrix(1.6349771,0,0,1.6349771,6.7451413,20.381118)" />
  </g>
</svg>
