<?xml version="1.0" encoding="UTF-8" standalone="no"?>
<!-- Created with Inkscape (http://www.inkscape.org/) -->

<svg
   width="800"
   height="800"
   viewBox="0 0 211.66666 211.66666"
   version="1.1"
   id="svg1"
   inkscape:version="1.3.2 (091e20e, 2023-11-25)"
   sodipodi:docname="logo_plain.svg"
   xmlns:inkscape="http://www.inkscape.org/namespaces/inkscape"
   xmlns:sodipodi="http://sodipodi.sourceforge.net/DTD/sodipodi-0.dtd"
   xmlns="http://www.w3.org/2000/svg"
   xmlns:svg="http://www.w3.org/2000/svg">
  <sodipodi:namedview
     id="namedview1"
     pagecolor="#ffffff"
     bordercolor="#000000"
     borderopacity="0.25"
     inkscape:showpageshadow="2"
     inkscape:pageopacity="0.0"
     inkscape:pagecheckerboard="0"
     inkscape:deskcolor="#d1d1d1"
     inkscape:document-units="mm"
     inkscape:zoom="0.70710678"
     inkscape:cx="461.74073"
     inkscape:cy="528.91587"
     inkscape:window-width="1392"
     inkscape:window-height="937"
     inkscape:window-x="206"
     inkscape:window-y="28"
     inkscape:window-maximized="0"
     inkscape:current-layer="layer1" />
  <defs
     id="defs1">
    <rect
       x="76.342649"
       y="350.61068"
       width="107.44521"
       height="83.411412"
       id="rect3" />
    <rect
       x="32.516313"
       y="281.3368"
       width="193.68413"
       height="262.95801"
       id="rect2" />
    <rect
       x="36.757572"
       y="115.92773"
       width="473.60717"
       height="575.39737"
       id="rect1" />
    <rect
       x="32.516312"
       y="281.33679"
       width="193.68413"
       height="262.95801"
       id="rect2-8" />
  </defs>
  <g
     inkscape:label="Ebene 1"
     inkscape:groupmode="layer"
     id="layer1">
    <path
       style="font-family:'SF Pro Display';-inkscape-font-specification:'SF Pro Display';white-space:pre;fill:none;stroke:#0c1869;stroke-width:5.01658"
       d="M 38.077214,209.37219 H 52.106275 V 73.035368 H 87.568646 V 55.793688 H 2.6148432 v 17.24168 H 38.077214 Z"
       id="text1"
       aria-label="T" />
    <path
       style="font-family:'SF Pro Display';-inkscape-font-specification:'SF Pro Display';white-space:pre;fill:none;stroke:#0c1869;stroke-width:5.34677"
       d="m 144.85787,209.2071 31.68859,-0.37619 c 18.95032,-0.22403 32.14245,-18.32321 32.14245,-49.77692 v -0.24727 c 0,-23.65223 -7.77824,-40.98888 -20.61853,-43.96099 v -0.49456 c 9.1981,-2.60034 16.11209,-20.556247 16.11209,-39.007514 v -0.247265 c 0,-26.747964 -10.30927,-44.580011 -25.5571,-44.580011 h -33.7675 z M 176.09435,50.204647 c 10.74137,0 16.85288,9.658998 16.85288,27.243349 v 0.247268 c 0,19.318002 -7.16093,29.843916 -20.30989,29.843916 H 155.96967 V 50.204226 Z m -0.3087,76.529123 c 14.1984,0 21.48279,10.52591 21.48279,31.20601 v 0.24726 c 0,20.55647 -7.09919,31.32988 -20.43335,31.32988 h -20.86545 v -62.78357 z"
       id="text2-9"
       aria-label="B"
       sodipodi:nodetypes="csssccssscccsssccccsssccc" />
    <path
       style="font-family:'SF Pro Display';-inkscape-font-specification:'SF Pro Display';white-space:pre;fill:#ffffff;stroke:#0c1869;stroke-width:5.16558"
       d="m 60.239627,209.2762 h 15.724511 v -81.09035 h 30.138622 l 26.99373,81.09035 h 18.43262 l -29.17769,-85.06669 c 15.72451,-8.09472 25.33392,-30.107106 25.33392,-58.509854 v -0.283575 c 0,-36.923789 -15.89922,-61.0661379 -40.18485,-61.0661379 H 60.239627 Z M 75.964138,105.60559 V 27.071755 H 105.4039 c 16.1613,0 26.03278,14.485311 26.03278,38.911959 v 0.283575 c 0,25.136554 -9.17261,39.338051 -25.33392,39.338051 z"
       id="text2"
       aria-label="R"
       inkscape:label="text2" />
  </g>
</svg>
