<?xml version="1.0" encoding="UTF-8" standalone="no"?>
<!-- Created with Inkscape (http://www.inkscape.org/) -->

<svg
   width="32"
   height="32"
   viewBox="0 0 8.4666665 8.4666666"
   version="1.1"
   id="svg1"
   xmlns="http://www.w3.org/2000/svg"
   xmlns:svg="http://www.w3.org/2000/svg">
  <defs
     id="defs1" />
  <g
     id="layer1">
    <path
       style="fill:none;stroke:#000000;stroke-width:0.284226;stroke-dasharray:none;stroke-opacity:1;paint-order:stroke markers fill"
       d="M 4.00041,2.2036747 2.3341432,3.1935281 M 4.1447175,4.2516552 2.3341432,5.2761239 M 4.1447175,4.2516552 6.2550044,5.2761239 M 4.1093865,2.1437552 6.0451691,3.1935281 m 0,0 -1.9004516,1.0581271 M 6.0451691,5.2761239 4.0699973,6.3497685"
       id="path1" />
    <path
       style="fill:none;fill-opacity:1;stroke:#000000;stroke-width:0.284226;stroke-dasharray:none;stroke-opacity:1;paint-order:stroke markers fill"
       d="m 2.3341432,5.2761239 1.7948179,1.093338"
       id="path2" />
    <path
       style="fill:none;stroke-width:0.442131;paint-order:stroke markers fill"
       d="M 4.2900971,2.2615639 4.4505175,3.6318185 3.1969981,4.2077311 2.2618112,3.1935281 2.937389,1.9907358 Z"
       id="path3" />
    <path
       style="fill:#000000;fill-opacity:1;stroke-width:0.722874;paint-order:stroke markers fill"
       d="m 4.1095311,1.6255358 0.448653,0.2591606 V 2.4028239 L 4.1093363,2.6617897 3.6606833,2.4028239 V 1.8846964 Z"
       id="path4" />
    <path
       style="fill:#000000;stroke-width:0.722874;paint-order:stroke markers fill"
       d="m 2.3342878,2.6754275 0.448653,0.2591606 V 3.4527156 L 2.334093,3.7116814 1.88544,3.4527156 V 2.9345881 Z"
       id="path5" />
    <path
       style="fill:#000000;stroke-width:0.722874;paint-order:stroke markers fill"
       d="M 0.5237135,3.6896305 0.97236646,3.948791 V 4.4669186 L 0.52351868,4.7258843 0.07486575,4.4669186 V 3.948791 Z"
       id="path6" />
    <path
       style="fill:#000000;stroke-width:0.722874;paint-order:stroke markers fill"
       d="M 7.9458855,3.6896305 8.3945385,3.948791 V 4.4669186 L 7.9456894,4.7258843 7.4970364,4.4669186 V 3.948791 Z"
       id="path7" />
    <path
       style="fill:#000000;stroke-width:0.722874;paint-order:stroke markers fill"
       d="m 6.0453137,2.6754275 0.448653,0.2591606 V 3.4527156 L 6.0451189,3.7116814 5.5964647,3.4527156 V 2.9345881 Z"
       id="path8" />
    <path
       style="fill:#000000;stroke-width:0.722874;paint-order:stroke markers fill"
       d="M 4.1095311,5.8021854 4.5581841,6.061346 V 6.5794736 L 4.1093363,6.8384393 3.6606833,6.5794736 V 6.061346 Z"
       id="path9" />
    <path
       style="fill:#000000;stroke-width:0.722874;paint-order:stroke markers fill"
       d="m 6.0453137,4.7580233 0.448653,0.2591606 V 5.5353114 L 6.0451189,5.7942772 5.5964647,5.5353114 V 5.0171839 Z"
       id="path10" />
    <path
       style="fill:#000000;stroke-width:0.722874;paint-order:stroke markers fill"
       d="m 2.3342878,4.7580233 0.448653,0.2591606 V 5.5353114 L 2.334093,5.7942772 1.88544,5.5353114 V 5.0171839 Z"
       id="path11" />
    <path
       style="fill:none;fill-opacity:1;stroke:#000000;stroke-width:0.284226;stroke-dasharray:none;stroke-opacity:1;paint-order:stroke markers fill"
       d="M 2.3341432,3.1935281 0.52356892,4.2077311 2.3341432,5.2761239 M 6.0451691,3.1935281 7.9457409,4.2077311 6.2551232,5.2761239"
       id="path12" />
    <path
       style="fill:#000000;stroke-width:0.722874;paint-order:stroke markers fill"
       d="M 4.144742,3.7335546 4.593395,3.9927164 V 4.5108427 L 4.1445472,4.7698085 3.6958942,4.5108427 V 3.9927164 Z"
       id="path13" />
  </g>
</svg>
